#
# generated by kHED
#
mtllib pale2.mtl
# vertices:
v 0.150000 -0.000000 0.038700
v 0.150000 0.000000 3.980600
v 0.000000 0.000000 1.652300
v 0.000000 -0.000000 0.038700
v -0.394800 0.000000 1.652300
v -0.150000 -0.000000 0.038700
v -0.128800 0.000000 4.009900
v -0.278800 0.000000 3.918300
v -0.397900 0.000000 3.842100
v 0.150000 0.100000 0.038700
v 0.000000 0.100000 0.038700
v 0.000000 0.100000 1.652300
v 0.150000 0.100000 3.980600
v -0.150000 0.100000 0.038700
v -0.394800 0.100000 1.652300
v -0.278800 0.100000 3.918300
v -0.128800 0.100000 4.009900
v -0.397900 0.100000 3.842100
v 0.000000 0.050000 0.038700
v 0.150000 0.050000 0.038700
v -0.150000 0.050000 0.038700
v -0.394800 0.050000 1.652300
v -0.397900 0.050000 3.842100
v -0.278800 0.050000 3.918300
v -0.128800 0.050000 4.009900
v 0.150000 0.050000 3.980600

# texture coords:
vt 1.000000 0.000000 0.0
vt 1.000000 0.500000 0.0
vt 0.500000 0.500000 0.0
vt 0.500000 0.500000 0.0
vt 0.500000 0.000000 0.0
vt 1.000000 0.000000 0.0
vt 0.500000 0.000000 0.0
vt 0.500000 0.500000 0.0
vt 0.000000 0.500000 0.0
vt 0.000000 0.500000 0.0
vt 0.000000 0.000000 0.0
vt 0.500000 0.000000 0.0
vt 1.000000 0.500000 0.0
vt 1.000000 1.000000 0.0
vt 0.500000 1.000000 0.0
vt 0.500000 1.000000 0.0
vt 0.500000 0.500000 0.0
vt 1.000000 0.500000 0.0
vt 0.500000 0.500000 0.0
vt 0.500000 1.000000 0.0
vt 0.000000 1.000000 0.0
vt 0.000000 1.000000 0.0
vt 0.000000 0.500000 0.0
vt 0.500000 0.500000 0.0
vt 0.000000 0.000000 0.0
vt 0.500000 0.000000 0.0
vt 0.500000 0.500000 0.0
vt 0.500000 0.500000 0.0
vt 0.000000 0.500000 0.0
vt 0.000000 0.000000 0.0
vt 0.500000 0.000000 0.0
vt 1.000000 0.000000 0.0
vt 1.000000 0.500000 0.0
vt 1.000000 0.500000 0.0
vt 0.500000 0.500000 0.0
vt 0.500000 0.000000 0.0
vt 0.000000 0.500000 0.0
vt 0.500000 0.500000 0.0
vt 0.500000 1.000000 0.0
vt 0.500000 1.000000 0.0
vt 0.000000 1.000000 0.0
vt 0.000000 0.500000 0.0
vt 0.500000 0.500000 0.0
vt 1.000000 0.500000 0.0
vt 1.000000 1.000000 0.0
vt 1.000000 1.000000 0.0
vt 0.500000 1.000000 0.0
vt 0.500000 0.500000 0.0
vt 0.000000 0.000000 0.0
vt 0.500000 0.000000 0.0
vt 0.500000 0.500000 0.0
vt 0.500000 0.500000 0.0
vt 0.000000 0.500000 0.0
vt 0.000000 0.000000 0.0
vt 0.500000 0.000000 0.0
vt 1.000000 0.000000 0.0
vt 1.000000 0.500000 0.0
vt 1.000000 0.500000 0.0
vt 0.500000 0.500000 0.0
vt 0.500000 0.000000 0.0
vt 0.000000 0.500000 0.0
vt 0.500000 0.500000 0.0
vt 0.500000 1.000000 0.0
vt 0.500000 1.000000 0.0
vt 0.000000 1.000000 0.0
vt 0.000000 0.500000 0.0
vt 0.500000 0.500000 0.0
vt 1.000000 0.500000 0.0
vt 1.000000 1.000000 0.0
vt 1.000000 1.000000 0.0
vt 0.500000 1.000000 0.0
vt 0.500000 0.500000 0.0
vt 0.000000 0.000000 0.0
vt 0.500000 0.000000 0.0
vt 0.500000 0.500000 0.0
vt 0.500000 0.500000 0.0
vt 0.000000 0.500000 0.0
vt 0.000000 0.000000 0.0
vt 0.500000 0.000000 0.0
vt 1.000000 0.000000 0.0
vt 1.000000 0.500000 0.0
vt 1.000000 0.500000 0.0
vt 0.500000 0.500000 0.0
vt 0.500000 0.000000 0.0
vt 0.000000 0.500000 0.0
vt 0.500000 0.500000 0.0
vt 0.500000 1.000000 0.0
vt 0.500000 1.000000 0.0
vt 0.000000 1.000000 0.0
vt 0.000000 0.500000 0.0
vt 0.500000 0.500000 0.0
vt 1.000000 0.500000 0.0
vt 1.000000 1.000000 0.0
vt 1.000000 1.000000 0.0
vt 0.500000 1.000000 0.0
vt 0.500000 0.500000 0.0
vt 0.000000 0.000000 0.0
vt 0.500000 0.000000 0.0
vt 0.500000 0.500000 0.0
vt 0.500000 0.500000 0.0
vt 0.000000 0.500000 0.0
vt 0.000000 0.000000 0.0
vt 0.500000 0.000000 0.0
vt 1.000000 0.000000 0.0
vt 1.000000 0.500000 0.0
vt 1.000000 0.500000 0.0
vt 0.500000 0.500000 0.0
vt 0.500000 0.000000 0.0
vt 0.000000 0.500000 0.0
vt 0.500000 0.500000 0.0
vt 0.500000 1.000000 0.0
vt 0.500000 1.000000 0.0
vt 0.000000 1.000000 0.0
vt 0.000000 0.500000 0.0
vt 0.500000 0.500000 0.0
vt 1.000000 0.500000 0.0
vt 1.000000 1.000000 0.0
vt 1.000000 1.000000 0.0
vt 0.500000 1.000000 0.0
vt 0.500000 0.500000 0.0
vt 0.000000 0.000000 0.0
vt 0.500000 0.000000 0.0
vt 0.500000 0.500000 0.0
vt 0.500000 0.500000 0.0
vt 0.000000 0.500000 0.0
vt 0.000000 0.000000 0.0
vt 0.500000 0.000000 0.0
vt 1.000000 0.000000 0.0
vt 1.000000 0.500000 0.0
vt 1.000000 0.500000 0.0
vt 0.500000 0.500000 0.0
vt 0.500000 0.000000 0.0
vt 0.000000 0.500000 0.0
vt 0.500000 0.500000 0.0
vt 0.500000 1.000000 0.0
vt 0.500000 1.000000 0.0
vt 0.000000 1.000000 0.0
vt 0.000000 0.500000 0.0
vt 0.500000 0.500000 0.0
vt 1.000000 0.500000 0.0
vt 1.000000 1.000000 0.0
vt 1.000000 1.000000 0.0
vt 0.500000 1.000000 0.0
vt 0.500000 0.500000 0.0

# normals:
vn 0.000000 -1.000000 0.000000
vn 0.000000 -1.000000 0.000000
vn 0.000000 -1.000000 0.000000
vn 0.000000 -1.000000 0.000000
vn 0.000000 -1.000000 0.000000
vn 0.000000 -1.000000 0.000000
vn 0.000000 -1.000000 0.000000
vn 0.000000 -1.000000 0.000000
vn 0.000000 -1.000000 0.000000
vn 0.000000 -1.000000 0.000000
vn 0.000000 -1.000000 0.000000
vn 0.000000 -1.000000 0.000000
vn 0.000000 -1.000000 0.000000
vn 0.000000 -1.000000 0.000000
vn 0.000000 -1.000000 0.000000
vn -0.000000 -1.000000 0.000000
vn -0.000000 -1.000000 0.000000
vn -0.000000 -1.000000 0.000000
vn 0.000000 -1.000000 0.000000
vn 0.000000 -1.000000 0.000000
vn 0.000000 -1.000000 0.000000
vn 0.000000 -1.000000 0.000000
vn 0.000000 -1.000000 0.000000
vn 0.000000 -1.000000 0.000000
vn -0.000000 1.000000 0.000000
vn -0.000000 1.000000 0.000000
vn -0.000000 1.000000 0.000000
vn 0.000000 1.000000 0.000000
vn 0.000000 1.000000 0.000000
vn 0.000000 1.000000 0.000000
vn -0.000000 1.000000 0.000000
vn -0.000000 1.000000 0.000000
vn -0.000000 1.000000 0.000000
vn 0.000000 1.000000 0.000000
vn 0.000000 1.000000 0.000000
vn 0.000000 1.000000 0.000000
vn 0.000000 1.000000 0.000000
vn 0.000000 1.000000 0.000000
vn 0.000000 1.000000 0.000000
vn 0.000000 1.000000 0.000000
vn 0.000000 1.000000 0.000000
vn 0.000000 1.000000 0.000000
vn -0.000000 1.000000 0.000000
vn -0.000000 1.000000 0.000000
vn -0.000000 1.000000 0.000000
vn 0.000000 1.000000 0.000000
vn 0.000000 1.000000 0.000000
vn 0.000000 1.000000 0.000000
vn 0.000000 0.000000 -1.000000
vn 0.000000 0.000000 -1.000000
vn 0.000000 0.000000 -1.000000
vn 0.000000 0.000000 -1.000000
vn 0.000000 0.000000 -1.000000
vn 0.000000 0.000000 -1.000000
vn 0.000000 0.000000 -1.000000
vn 0.000000 0.000000 -1.000000
vn 0.000000 0.000000 -1.000000
vn 0.000000 0.000000 -1.000000
vn 0.000000 0.000000 -1.000000
vn 0.000000 0.000000 -1.000000
vn 0.000000 0.000000 -1.000000
vn 0.000000 0.000000 -1.000000
vn 0.000000 0.000000 -1.000000
vn 0.000000 0.000000 -1.000000
vn 0.000000 0.000000 -1.000000
vn 0.000000 0.000000 -1.000000
vn 0.000000 0.000000 -1.000000
vn 0.000000 0.000000 -1.000000
vn 0.000000 0.000000 -1.000000
vn 0.000000 0.000000 -1.000000
vn 0.000000 0.000000 -1.000000
vn 0.000000 0.000000 -1.000000
vn -0.988687 0.000000 -0.149994
vn -0.988687 0.000000 -0.149994
vn -0.988687 0.000000 -0.149994
vn -0.988687 0.000000 -0.149994
vn -0.988687 0.000000 -0.149994
vn -0.988687 0.000000 -0.149994
vn -0.999999 0.000000 -0.001416
vn -0.999999 0.000000 -0.001416
vn -0.999999 0.000000 -0.001416
vn -0.999999 0.000000 -0.001416
vn -0.999999 0.000000 -0.001416
vn -0.999999 0.000000 -0.001416
vn -0.988687 0.000000 -0.149994
vn -0.988687 0.000000 -0.149994
vn -0.988687 0.000000 -0.149994
vn -0.988687 0.000000 -0.149994
vn -0.988687 0.000000 -0.149994
vn -0.988687 0.000000 -0.149994
vn -0.999999 0.000000 -0.001416
vn -0.999999 0.000000 -0.001416
vn -0.999999 0.000000 -0.001416
vn -0.999999 0.000000 -0.001416
vn -0.999999 0.000000 -0.001416
vn -0.999999 0.000000 -0.001416
vn -0.538933 0.000000 0.842348
vn -0.538933 0.000000 0.842348
vn -0.538933 0.000000 0.842348
vn -0.538933 0.000000 0.842348
vn -0.538933 0.000000 0.842348
vn -0.538933 0.000000 0.842348
vn -0.521175 0.000000 0.853450
vn -0.521175 0.000000 0.853450
vn -0.521175 0.000000 0.853450
vn -0.521175 0.000000 0.853450
vn -0.521175 0.000000 0.853450
vn -0.521175 0.000000 0.853450
vn -0.538933 0.000000 0.842348
vn -0.538933 0.000000 0.842348
vn -0.538933 0.000000 0.842348
vn -0.538933 0.000000 0.842348
vn -0.538933 0.000000 0.842348
vn -0.538933 0.000000 0.842348
vn -0.521175 0.000000 0.853450
vn -0.521175 0.000000 0.853450
vn -0.521175 0.000000 0.853450
vn -0.521175 0.000000 0.853450
vn -0.521175 0.000000 0.853450
vn -0.521175 0.000000 0.853450
vn 0.104518 0.000000 0.994523
vn 0.104518 0.000000 0.994523
vn 0.104518 0.000000 0.994523
vn 0.104518 0.000000 0.994523
vn 0.104518 0.000000 0.994523
vn 0.104518 0.000000 0.994523
vn 1.000000 0.000000 -0.000000
vn 1.000000 0.000000 -0.000000
vn 1.000000 0.000000 -0.000000
vn 1.000000 0.000000 0.000000
vn 1.000000 0.000000 0.000000
vn 1.000000 0.000000 0.000000
vn 0.104518 0.000000 0.994523
vn 0.104518 0.000000 0.994523
vn 0.104518 0.000000 0.994523
vn 0.104518 0.000000 0.994523
vn 0.104518 0.000000 0.994523
vn 0.104518 0.000000 0.994523
vn 1.000000 0.000000 -0.000000
vn 1.000000 0.000000 -0.000000
vn 1.000000 0.000000 -0.000000
vn 1.000000 0.000000 0.000000
vn 1.000000 0.000000 0.000000
vn 1.000000 0.000000 0.000000

# triangles:
g pale
usemtl greyCAR
f 1/1/1 2/2/2 3/3/3
f 3/4/4 4/5/5 1/6/6
f 4/7/7 3/8/8 5/9/9
f 5/10/10 6/11/11 4/12/12
f 2/13/13 7/14/14 8/15/15
f 8/16/16 3/17/17 2/18/18
f 3/19/19 8/20/20 9/21/21
f 9/22/22 5/23/23 3/24/24
f 10/25/25 11/26/26 12/27/27
f 12/28/28 13/29/29 10/30/30
f 11/31/31 14/32/32 15/33/33
f 15/34/34 12/35/35 11/36/36
f 13/37/37 12/38/38 16/39/39
f 16/40/40 17/41/41 13/42/42
f 12/43/43 15/44/44 18/45/45
f 18/46/46 16/47/47 12/48/48
f 1/49/49 4/50/50 19/51/51
f 19/52/52 20/53/53 1/54/54
f 4/55/55 6/56/56 21/57/57
f 21/58/58 19/59/59 4/60/60
f 20/61/61 19/62/62 11/63/63
f 11/64/64 10/65/65 20/66/66
f 19/67/67 21/68/68 14/69/69
f 14/70/70 11/71/71 19/72/72
f 6/73/73 5/74/74 22/75/75
f 22/76/76 21/77/77 6/78/78
f 5/79/79 9/80/80 23/81/81
f 23/82/82 22/83/83 5/84/84
f 21/85/85 22/86/86 15/87/87
f 15/88/88 14/89/89 21/90/90
f 22/91/91 23/92/92 18/93/93
f 18/94/94 15/95/95 22/96/96
f 9/97/97 8/98/98 24/99/99
f 24/100/100 23/101/101 9/102/102
f 8/103/103 7/104/104 25/105/105
f 25/106/106 24/107/107 8/108/108
f 23/109/109 24/110/110 16/111/111
f 16/112/112 18/113/113 23/114/114
f 24/115/115 25/116/116 17/117/117
f 17/118/118 16/119/119 24/120/120
f 7/121/121 2/122/122 26/123/123
f 26/124/124 25/125/125 7/126/126
f 2/127/127 1/128/128 20/129/129
f 20/130/130 26/131/131 2/132/132
f 25/133/133 26/134/134 13/135/135
f 13/136/136 17/137/137 25/138/138
f 26/139/139 20/140/140 10/141/141
f 10/142/142 13/143/143 26/144/144

g